<svg xmlns="http://www.w3.org/2000/svg" viewBox="0 0 170.08 56.69"><defs><style>.a{fill:#e6000f;}.b{fill:#6f7070;}</style></defs><polygon class="a" points="75.18 30.74 76.51 30.74 78.81 30.8 78.99 28.55 78.82 28.33 76.73 28.38 75.22 28.38 75.27 25.58 76.82 25.57 79.74 25.67 79.95 23.43 79.78 23.2 72.22 23.2 72.39 31.69 72.22 35.27 75.27 35.27 75.16 31.39 75.18 30.74"/><path class="a" d="M92.57,31.06l0-1.74.11-6.12H89.61l.13,7.58c0,1.53-.65,2.24-2.09,2.24s-2.07-.73-2.05-2.32l.13-7.5h-3l.08,6.08,0,1.83c-.08,2.79,1.65,4.34,4.78,4.34s5.07-1.57,5-4.39"/><path class="a" d="M88.06,20.36a1.17,1.17,0,0,0,1.29,1.31,1.3,1.3,0,0,0,1.39-1.42,1.18,1.18,0,0,0-1.27-1.31,1.31,1.31,0,0,0-1.41,1.42"/><path class="a" d="M86.06,18.94a1.31,1.31,0,0,0-1.4,1.42A1.17,1.17,0,0,0,86,21.67a1.31,1.31,0,0,0,1.4-1.42,1.19,1.19,0,0,0-1.29-1.31"/><path class="a" d="M98.81,35.27l-.11-3.88h1.59c.62,1.31,1.27,2.59,1.94,3.84l.3.24a12.24,12.24,0,0,0,3-.58l0-.33c-1-1.33-1.93-2.7-2.81-4.06a4.34,4.34,0,0,0,2.16-3.67c0-2.35-1.48-3.64-4.08-3.64H95.77l.17,8.49-.17,3.58Zm0-9.86,1-.06c1.29.06,1.89.58,1.89,1.76a2,2,0,0,1-1.35,2.08l-1.63-.08Z"/><polygon class="a" points="120.41 23.2 119.92 25.02 118.24 30.12 118.05 30.12 116.5 24.96 116.07 23.2 112.58 23.2 111.38 35.27 113.9 35.27 114.15 31.32 114.52 27.64 114.72 27.64 116.82 34.05 119.14 34.05 121.53 27.64 121.72 27.64 122.06 31.6 122.21 35.27 124.88 35.27 123.85 23.2 120.41 23.2"/><path class="a" d="M135,30.78c0,1.53-.65,2.24-2.09,2.24s-2.07-.73-2-2.32l.13-7.5h-3l.07,6.08,0,1.84c-.08,2.78,1.64,4.33,4.78,4.33s5.07-1.57,5.05-4.39l0-1.74L138,23.2h-3.09Z"/><path class="a" d="M144.11,26.4c0-.52.48-1,1.34-1a5.48,5.48,0,0,1,2.66,1l.45-.17.48-2.55a9.31,9.31,0,0,0-3.25-.63c-2.77,0-4.66,1.68-4.66,3.89,0,3.61,5.17,3.4,5.17,5.21,0,.53-.43,1.07-1.44,1.07a5.79,5.79,0,0,1-3.31-1.38l-.32.18-.43,2.72a10.16,10.16,0,0,0,3.74.74c2.92,0,4.77-1.72,4.77-3.87,0-3.55-5.2-3.46-5.2-5.18"/><polygon class="a" points="152.84 23.2 153.01 31.69 152.84 35.27 155.89 35.27 155.78 31.39 155.95 23.2 152.84 23.2"/><path class="a" d="M165.76,28.89l4-5.69h-3.23l-.67,1.22-2.94,4.17L163,23.2h-3.06l.15,8.49-.15,3.58h3l-.12-3.87,0-2.08c1.21,2.06,2.5,4,3.83,6l.36.18a20.73,20.73,0,0,0,3-.5l0-.34c-1.52-1.83-3-3.78-4.32-5.74"/><path class="b" d="M11.83,14c-.7,0-.88-.26-.88-1.24,0-1.7.12-5.66.28-8.75,0-.78.3-1,1.28-1.14l.08-.9a23.09,23.09,0,0,1-2.4.18c-.64,0-2,0-2-.06l-.14.88,0,.08c.2,0,.5,0,.68,0,.6,0,.74.22.74,1.08l0,3.63a22.72,22.72,0,0,1-3,.2l-3.35,0,.12-3.23c.06-1.44.2-1.62,1.32-1.8l.08-.9A18.83,18.83,0,0,1,2.6,2.1C2,2.1,1,2.06.38,2l-.14.88L.28,3,1,3c.6,0,.74.22.74,1.08l0,8.39c0,1.12-.32,1.48-1.56,1.72L0,15.07a14.81,14.81,0,0,1,3-.24c.6,0,1.7,0,1.7.06L4.92,14l0-.08c-.22,0-.6.06-.9.06-.7,0-.88-.28-.88-1.36L3.18,9c1.34-.12,2.91-.22,3.31-.22l3,0v3C9.53,13.59,9.27,14,8,14l-.18.9,2.3,0c.64,0,1.78,0,2.46.06l.18-.92,0-.08c-.22,0-.6.06-.9.06"/><path class="b" d="M19.61,5.55A4.8,4.8,0,0,0,15,10.63c0,2.62,1.58,4.44,3.88,4.44A4.8,4.8,0,0,0,23.48,10c0-2.62-1.6-4.44-3.87-4.44m-.2,8.54c-1.68,0-2.84-1.64-2.84-4,0-2.1.94-3.42,2.44-3.42,1.68,0,2.83,1.68,2.83,4.08,0,2.08-.93,3.38-2.43,3.38"/><path class="b" d="M33.18,13.73,33,13.11l-.12,0a5.27,5.27,0,0,1-2.26.66c-1.68,0-2.72-1.44-2.72-3.76,0-2.14.9-3.34,2.54-3.34A1.55,1.55,0,0,1,32,8.27v.62l.82-.06a12.29,12.29,0,0,1,.42-2.76l-.06-.14a7.72,7.72,0,0,0-2.34-.38c-2.62,0-4.61,2.22-4.61,5.1,0,2.68,1.63,4.41,4.17,4.41a7,7,0,0,0,2.74-1.33"/><path class="b" d="M39.18,14c-.52,0-.72-.3-.72-1.12,0-1.7,0-3.36.06-4.86a5,5,0,0,1,2.54-1.1c1.06,0,1.66.76,1.66,2.08l-.12,4c0,.7-.32,1.08-1.12,1.3l-.08.82a13,13,0,0,1,2.06-.24c.54,0,1.34,0,1.78.06L45.4,14l0-.08-.7,0c-.5,0-.7-.34-.7-1.12,0-1.16.32-4,.32-4.74a2.42,2.42,0,0,0-2.74-2.58c-.76,0-2.62,1.3-3,1.56A42.15,42.15,0,0,1,39,.26L38.9,0a26.79,26.79,0,0,1-3,.58l-.08.64.08.06h.42c.52,0,.74.32.74,1V13c0,.74-.28,1-1,1.1l-.12.82c.56,0,1.42,0,2,0s1.36,0,1.82.06l.18-.86,0-.08-.7,0"/><path class="b" d="M51.23,14.13c-1.41,0-1.93-.64-1.93-2.4l-.7.1c0,.66-.16,2.26-.24,2.68l.06.14a6.22,6.22,0,0,0,2.38.42c2,0,3.65-1.32,3.65-2.86,0-1-.64-1.66-2.8-2.8-1.23-.64-1.73-1.16-1.73-1.8s.72-1.1,1.61-1.1c1.14,0,1.64.42,1.64,1.38,0,.18,0,.58,0,.58l.74-.06A16.38,16.38,0,0,1,54.25,6l0-.1a6.81,6.81,0,0,0-2-.32c-2.09,0-3.67,1.2-3.67,2.84,0,1,.66,1.72,2.18,2.5,1.83,1,2.31,1.4,2.31,2.06s-.8,1.18-1.8,1.18"/><path class="b" d="M64.07,8.83a12.29,12.29,0,0,1,.42-2.76l-.06-.14a7.72,7.72,0,0,0-2.34-.38c-2.62,0-4.61,2.22-4.61,5.1,0,2.68,1.63,4.42,4.17,4.42,1,0,2.74-1.34,2.74-1.34l-.22-.62-.12,0a5.27,5.27,0,0,1-2.26.66c-1.68,0-2.72-1.44-2.72-3.76,0-2.14.9-3.34,2.54-3.34a1.55,1.55,0,0,1,1.64,1.64v.62Z"/><path class="b" d="M67.57,1.28c.52,0,.74.32.74,1V13c0,.74-.28,1-1,1.1l-.12.82c.56,0,1.42,0,2,0s1.36,0,1.82.06l.18-.86,0-.08-.7,0c-.52,0-.72-.3-.72-1.12,0-1.7,0-3.36.06-4.86a5,5,0,0,1,2.54-1.1c1.06,0,1.66.76,1.66,2.08l-.12,4c0,.7-.32,1.08-1.12,1.3l-.08.82a13,13,0,0,1,2.06-.24c.53,0,1.33,0,1.77.06L76.6,14l0-.08-.7,0c-.5,0-.7-.34-.7-1.12,0-1.16.32-4,.32-4.74a2.42,2.42,0,0,0-2.73-2.58c-.76,0-2.62,1.3-3,1.56A42.15,42.15,0,0,1,70.23.26L70.11,0a26.79,26.79,0,0,1-3,.58l-.08.64.08.06Z"/><path class="b" d="M80,7.89l-.08,4.86c0,1.5.94,2.32,2.65,2.32a8.69,8.69,0,0,0,2.78-1.66l.1,0a1.6,1.6,0,0,0,1.78,1.62c.68,0,1.74-1.6,1.74-1.6l-.28-.32a2.08,2.08,0,0,1-1.2.5c-.52,0-.82-.34-.82-.92a36.9,36.9,0,0,1,.44-6.94L87,5.55s-1.66.38-3.08.58l-.08.72.48,0c.74,0,1,.28,1,1.08v4.64a4.48,4.48,0,0,1-2.42,1.14c-1.08,0-1.6-.64-1.6-2a28.35,28.35,0,0,1,.52-5.94l-.12-.24s-1.61.4-2.85.6l-.08.74a2.21,2.21,0,0,1,.5-.08c.5,0,.74.38.74,1.08"/><path class="b" d="M94.14,14c-.5,0-.7-.32-.7-1.12C93.44,7,93.72.7,94,.26L93.88,0a25.77,25.77,0,0,1-3,.58l-.08.68.06,0c.18,0,.34,0,.46,0,.6,0,.72.26.72,1.06v9.81c0,1.26,0,1.8-1.12,2.12l-.08.82a13.87,13.87,0,0,1,2.06-.24c.54,0,1.34,0,1.78.06l.16-.86,0-.08Z"/><path class="b" d="M101.48,15.07a6.74,6.74,0,0,0,3.06-1.36l-.22-.58-.12,0a5.85,5.85,0,0,1-2.44.62c-1.88,0-3-1.44-3-4h5.51l.26-.24a3.7,3.7,0,0,0,.12-1c0-1.89-1-2.89-3-2.89-2.38,0-4.42,2.36-4.42,5.1a4.08,4.08,0,0,0,4.2,4.42m-.16-8.5A1.49,1.49,0,0,1,103,8.21c0,.4-.1.5-.5.54l-3.62.17a2.54,2.54,0,0,1,2.46-2.35"/><path class="b" d="M32.59,39.13c-1.19,0-2.77-.06-2.77-.06l-.14.88,0,.08s.44,0,.68,0c.6,0,.74.22.74,1.08l0,8.39c0,1.12-.32,1.48-1.56,1.72l-.12.92a15,15,0,0,1,2.28-.24c1.07,0,3,.08,3,.08l.18-.94,0-.08s-1,.06-1.42.06c-.7,0-.88-.28-.88-1.36l.08-3.32a9.44,9.44,0,0,1,1.54-.14c.94,0,2.46.06,2.46.06L36.89,45l-.08-.1s-1.48.22-2.1.22l-2.06,0,.16-4.22c0-.74.1-.78,1.4-.78,2.44,0,2.68.12,2.68,1.42,0,.28,0,.92,0,.92l1-.08A25.14,25.14,0,0,1,38.27,39l-.06-.12a41.79,41.79,0,0,1-5.62.24"/><path class="b" d="M45.65,42.67a4.26,4.26,0,0,0-2.81,2.14l-.08-.06a11.32,11.32,0,0,1,.18-2.06l-.14-.12s-1.48.38-2.7.6l-.06.62.1.14a1.65,1.65,0,0,1,.42-.06c.54,0,.76.34.76,1.22v4.39c0,1.26-.2,1.58-1,1.66l-.1.8s.92-.08,2.1-.08c.77,0,2,0,2,0l.18-.88,0-.08s-.6,0-.88,0c-.75,0-1-.26-1-1.16,0-.44.17-4.08.17-4.08a2.62,2.62,0,0,1,1.85-1.35c.44,0,.54.26.54,1.36l.78-.06a25.91,25.91,0,0,1,.32-2.86l-.06-.08a1.7,1.7,0,0,0-.62-.08"/><path class="b" d="M52.76,42.59c-2.38,0-4.42,2.35-4.42,5.09a4.08,4.08,0,0,0,4.2,4.42,6.75,6.75,0,0,0,3.05-1.36l-.22-.58-.12,0a5.85,5.85,0,0,1-2.43.62c-1.88,0-3-1.44-3-4h5.51l.26-.24a4.07,4.07,0,0,0,.12-1c0-1.89-1-2.89-3-2.89m.77,3.19L49.92,46a2.53,2.53,0,0,1,2.46-2.35A1.48,1.48,0,0,1,54,45.24c0,.4-.1.5-.5.54"/><path class="b" d="M61.74,51c-.5,0-.7-.34-.7-1.12a38.18,38.18,0,0,1,.46-7.07l-.1-.24s-1.54.38-2.88.58l-.08.74a2.21,2.21,0,0,1,.5-.08c.5,0,.74.34.74,1.08V50c0,.7-.32,1.08-1.12,1.3l-.08.82a13.43,13.43,0,0,1,2.06-.24c.74,0,1.78.06,1.78.06l.16-.86,0-.08s-.46,0-.7,0"/><path class="b" d="M61.42,39.05a1,1,0,0,0-1-1,1.17,1.17,0,0,0-1.18,1.18,1,1,0,0,0,1,1,1.17,1.17,0,0,0,1.18-1.18"/><path class="b" d="M69.84,42.59A8,8,0,0,0,67.43,44a40.25,40.25,0,0,1,.46-6.7L67.77,37s-1.59.4-3,.58l-.08.66.06.06a1.92,1.92,0,0,1,.44-.06c.5,0,.73.34.73,1.08V51.7l.18.16a15.57,15.57,0,0,0,2.59.24,5.08,5.08,0,0,0,5-5.24c0-2.53-1.57-4.27-3.85-4.27M69.28,51a5,5,0,0,1-2-.42L67.39,45A3.91,3.91,0,0,1,69.52,44c1.48,0,2.64,1.62,2.64,3.65S71.06,51,69.28,51"/><path class="b" d="M84.73,50.68c-.52,0-.82-.34-.82-.92a36.76,36.76,0,0,1,.44-6.93l-.12-.24s-1.66.38-3.07.58l-.08.72.47,0c.74,0,1,.28,1,1.08v4.63a4.45,4.45,0,0,1-2.41,1.14c-1.08,0-1.6-.64-1.6-2a28.24,28.24,0,0,1,.52-5.93l-.12-.24s-1.62.4-2.86.6l-.08.74a2.21,2.21,0,0,1,.5-.08c.5,0,.74.38.74,1.07l-.08,4.86c0,1.5.94,2.32,2.66,2.32a8.58,8.58,0,0,0,2.77-1.66l.1,0a1.6,1.6,0,0,0,1.78,1.62c.68,0,1.74-1.6,1.74-1.6l-.28-.32a2.08,2.08,0,0,1-1.2.5"/><path class="b" d="M93.79,42.67c-.8,0-2,.88-2.81,2.14l-.08-.06a12.42,12.42,0,0,1,.18-2.06l-.14-.12s-1.48.38-2.7.6l-.06.62.1.14a1.65,1.65,0,0,1,.42-.06c.54,0,.76.34.76,1.22v4.39c0,1.26-.2,1.58-1,1.66l-.1.8s.92-.08,2.1-.08c.78,0,2,0,2,0l.19-.88,0-.08s-.59,0-.88,0c-.75,0-1-.26-1-1.16,0-.44.16-4.08.16-4.08a2.65,2.65,0,0,1,1.85-1.35c.44,0,.54.26.54,1.36l.78-.06a25.91,25.91,0,0,1,.32-2.86l-.06-.08a1.7,1.7,0,0,0-.62-.08"/><path class="b" d="M102.85,42.81c-.52,0-1.21-.22-1.95-.22a3.72,3.72,0,0,0-3.72,3.63,2.87,2.87,0,0,0,1.48,2.58v.08A9.28,9.28,0,0,0,97,50.16c0,1,.8,1.72,2.18,2v.12a11.57,11.57,0,0,0-2,1.8c0,1.65,1.16,2.65,3,2.65,2.49,0,4.93-1.75,4.93-3.53,0-2.94-6.61-1.54-6.61-3.14,0-.3.24-.56.86-.92a4,4,0,0,0,1.12.16,3.73,3.73,0,0,0,3.93-3.54,2.93,2.93,0,0,0-.8-2l.08-.1c.42,0,1.14-.1,1.72-.18l.22-1.12-.06-.08a23.4,23.4,0,0,1-2.76.6M100,52.28c3.19.42,3.85.68,3.85,1.46,0,1.06-1.42,2-3,2-1.28,0-2.12-.6-2.12-1.49A2.54,2.54,0,0,1,100,52.28m1-3.9a2.32,2.32,0,0,1-2.3-2.56,2,2,0,0,1,2-2.21A2.34,2.34,0,0,1,103,46.2a1.93,1.93,0,0,1-2,2.18"/></svg>